<svg xmlns="http://www.w3.org/2000/svg" version="1.1" xmlns:xlink="http://www.w3.org/1999/xlink" xmlns:svgjs="http://svgjs.dev/svgjs" width="1000" height="623" viewBox="0 0 1000 623"><g transform="matrix(1,0,0,1,-0.6060606060606233,0.2522267206477409)"><svg viewBox="0 0 396 247" data-background-color="#5e9387" preserveAspectRatio="xMidYMid meet" height="623" width="1000" xmlns="http://www.w3.org/2000/svg" xmlns:xlink="http://www.w3.org/1999/xlink"><defs></defs><g id="tight-bounds" transform="matrix(1,0,0,1,0.2400000000000091,-0.09999999999999432)"><svg viewBox="0 0 395.52 247.2" height="247.2" width="395.52"><g><svg></svg></g><g><svg viewBox="0 0 395.52 247.2" height="247.2" width="395.52"><g transform="matrix(8.757142857142856, 0, 0, 8.757142857142856, 114.43911494118827, 1)"><svg xmlns="http://www.w3.org/2000/svg" xmlns:xlink="http://www.w3.org/1999/xlink" version="1.1" x="0" y="0" viewBox="6.4850006103515625 2 19.029239654541016 28" enable-background="new 0 0 32 32" xml:space="preserve" height="28" width="19.029239654541016" class="icon-none" data-fill-palette-color="accent" id="none"><path d="M24.485 2c0 8-18 4-18 20 0 6 2 8 2 8h2c0 0-3-2-3-8 0-4 9-8 9-8s-7.981 4.328-7.981 8.436C21.239 24.431 28.288 9.606 24.485 2z" fill="#ffffff" data-fill-palette-color="accent"></path></svg></g><rect width="348.05760000000004" height="70.00824678633181" fill="#5e9387" y="88.59587660683408" x="23.731199999999973" data-fill-palette-color="quaternary"></rect><g transform="matrix(1,0,0,1,39.55199999999999,99.82248015614834)"><svg viewBox="0 0 316.416 47.555039687703314" height="47.555039687703314" width="316.416"><g><svg viewBox="0 0 316.416 47.555039687703314" height="47.555039687703314" width="316.416"><g><svg viewBox="0 0 316.416 47.555039687703314" height="47.555039687703314" width="316.416"><g><svg viewBox="0 0 316.416 47.555039687703314" height="47.555039687703314" width="316.416"><g><svg viewBox="0 0 316.416 47.555039687703314" height="47.555039687703314" width="316.416"><g transform="matrix(1,0,0,1,0,0)"><svg width="316.416" viewBox="2 -34.25 230.5399932861328 34.650001525878906" height="47.555039687703314" data-palette-color="#ffffff"><g class="undefined-text-0" data-fill-palette-color="primary" id="text-0"><path d="M28.15-9.05L28.15-1.5Q25.1 0.4 19.35 0.4L19.35 0.4Q11.95 0.4 6.98-4.38 2-9.15 2-16.75L2-16.75Q2-24.45 6.83-29.3 11.65-34.15 19.4-34.15L19.4-34.15Q25.1-34.15 28.15-32.25L28.15-32.25 28.15-24.85Q24.4-27.15 19.8-27.15L19.8-27.15Q15.75-27.15 13-24.33 10.25-21.5 10.25-16.75L10.25-16.75Q10.25-12.1 13-9.38 15.75-6.65 20.1-6.65L20.1-6.65Q24.8-6.65 28.15-9.05L28.15-9.05ZM44.1-14.3L44.1-14.3 43.75-13.1 51.85-13.1 51.5-14.3Q50.05-19.2 49.12-22.65 48.2-26.1 48-27.1L48-27.1 47.8-28.1Q47.4-25.35 44.1-14.3ZM41.9-6.9L39.85 0 31.8 0 43.05-33.7 52.75-33.7 64 0 55.75 0 53.7-6.9 41.9-6.9ZM79.9-27.45L79.9-27.45 76.1-27.45 76.1-17.95 79.75-17.95Q84.75-17.95 84.75-22.85L84.75-22.85Q84.75-25 83.45-26.23 82.15-27.45 79.9-27.45ZM76.1-11.7L76.1 0 68.4 0 68.4-33.7 80.05-33.7Q85.7-33.7 89.12-30.7 92.55-27.7 92.55-22.9L92.55-22.9Q92.55-15.7 86.4-12.95L86.4-12.95 94.95 0 85.75 0 78.45-11.7 76.1-11.7ZM113.64 0L113.64 0 99.09 0 99.09-33.7 112.19-33.7Q117.74-33.7 120.64-31.08 123.54-28.45 123.54-24.4L123.54-24.4Q123.54-21.75 122.14-19.75 120.74-17.75 118.49-17.05L118.49-17.05Q124.34-15.3 124.34-9.15L124.34-9.15Q124.34-5.15 121.47-2.58 118.59 0 113.64 0ZM110.89-27.55L110.89-27.55 106.79-27.55 106.79-20 109.64-20Q112.64-20 114.17-21.1 115.69-22.2 115.69-24L115.69-24Q115.69-27.55 110.89-27.55ZM110.89-13.95L110.89-13.95 106.79-13.95 106.79-6.15 110.84-6.15Q116.54-6.15 116.54-10.05 116.54-13.95 110.89-13.95ZM160.89-16.95L160.89-16.95Q160.89-9.2 156.42-4.42 151.94 0.35 144.49 0.35L144.49 0.35Q136.99 0.35 132.54-4.4 128.09-9.15 128.09-16.95L128.09-16.95Q128.09-24.7 132.57-29.48 137.04-34.25 144.49-34.25L144.49-34.25Q151.99-34.25 156.44-29.5 160.89-24.75 160.89-16.95ZM138.54-24.48Q136.34-21.7 136.34-16.95 136.34-12.2 138.54-9.43 140.74-6.65 144.49-6.65 148.24-6.65 150.44-9.43 152.64-12.2 152.64-16.95 152.64-21.7 150.44-24.48 148.24-27.25 144.49-27.25 140.74-27.25 138.54-24.48ZM173.84-13.95L173.84 0 166.14 0 166.14-33.7 174.59-33.7 182.44-19.75Q184.09-16.8 185.31-14.23 186.54-11.65 186.89-10.6L186.89-10.6 187.29-9.5Q186.79-13.2 186.79-19.75L186.79-19.75 186.79-33.7 194.49-33.7 194.49 0 186.04 0 177.99-13.95Q176.39-16.65 175.16-19.28 173.94-21.9 173.49-23.15L173.49-23.15 173.09-24.4Q173.84-19.9 173.84-13.95L173.84-13.95ZM232.54-16.95L232.54-16.95Q232.54-9.2 228.06-4.42 223.59 0.35 216.14 0.35L216.14 0.35Q208.64 0.35 204.19-4.4 199.74-9.15 199.74-16.95L199.74-16.95Q199.74-24.7 204.21-29.48 208.69-34.25 216.14-34.25L216.14-34.25Q223.64-34.25 228.09-29.5 232.54-24.75 232.54-16.95ZM210.19-24.48Q207.99-21.7 207.99-16.95 207.99-12.2 210.19-9.43 212.39-6.65 216.14-6.65 219.89-6.65 222.09-9.43 224.29-12.2 224.29-16.95 224.29-21.7 222.09-24.48 219.89-27.25 216.14-27.25 212.39-27.25 210.19-24.48Z" fill="#ffffff" data-fill-palette-color="primary"></path></g></svg></g></svg></g></svg></g></svg></g></svg></g></svg></g></svg></g></svg><rect width="395.52" height="247.2" fill="none" stroke="none" visibility="hidden"></rect></g></svg></g></svg>