<svg xmlns="http://www.w3.org/2000/svg" version="1.1" xmlns:xlink="http://www.w3.org/1999/xlink" xmlns:svgjs="http://svgjs.dev/svgjs" width="1000" height="141" viewBox="0 0 1000 141"><g transform="matrix(1,0,0,1,0.8250357349087949,0.22657975546951548)"><svg viewBox="0 0 396 56" data-background-color="#ffffff" preserveAspectRatio="xMidYMid meet" height="141" width="1000" xmlns="http://www.w3.org/2000/svg" xmlns:xlink="http://www.w3.org/1999/xlink"><defs></defs><g id="tight-bounds" transform="matrix(1,0,0,1,0.2495367673532769,-0.08998912273966653)"><svg viewBox="0 0 395.52 56.179978245479326" height="56.179978245479326" width="395.52"><g><svg viewBox="0 0 503.7507696744584 71.55316363636362" height="56.179978245479326" width="395.52"><g><rect width="5.9366675051124025" height="71.55316363636362" x="86.75308775805699" y="0" fill="#ffffff" opacity="1" stroke-width="0" stroke="transparent" fill-opacity="1" class="rect-o-0" data-fill-palette-color="primary" rx="1%" id="o-0" data-palette-color="#ffffff"></rect></g><g transform="matrix(1,0,0,1,108.2307696744584,0.1779929443690591)"><svg viewBox="0 0 395.52 71.1971777476255" height="71.1971777476255" width="395.52"><g><svg viewBox="0 0 395.52 71.1971777476255" height="71.1971777476255" width="395.52"><g><svg viewBox="0 0 395.52 71.1971777476255" height="71.1971777476255" width="395.52"><g transform="matrix(1,0,0,1,0,0)"><svg width="395.52" viewBox="1.000000238418579 -35.80000305175781 221.10000610351562 36.80000305175781" height="71.1971777476255" data-palette-color="#ffffff"><svg></svg><g class="undefined-text-0" data-fill-palette-color="primary" id="text-0"><path d="M17.6-35.8c4.3 0 8.033 1.367 11.2 4.1v0l-4.75 5.6c-1-0.733-1.973-1.3-2.92-1.7-0.953-0.4-1.963-0.6-3.03-0.6v0c-2.033 0-3.607 0.917-4.72 2.75-1.12 1.833-1.68 4.55-1.68 8.15v0c0 3.6 0.567 6.29 1.7 8.07 1.133 1.787 2.75 2.68 4.85 2.68v0c1.133 0 2.193-0.233 3.18-0.7 0.98-0.467 2.07-1.167 3.27-2.1v0l4.5 5.7c-1.4 1.4-3.09 2.557-5.07 3.47-1.987 0.92-4.113 1.38-6.38 1.38v0c-3.433 0-6.4-0.71-8.9-2.13-2.5-1.413-4.433-3.503-5.8-6.27-1.367-2.767-2.05-6.133-2.05-10.1v0c0-3.8 0.7-7.077 2.1-9.83 1.4-2.747 3.35-4.847 5.85-6.3 2.5-1.447 5.383-2.17 8.65-2.17zM60.5 0h-10.9l-1.35-6.75h-8.25l-1.3 6.75h-10.75l10.15-34.8h12.3zM44.1-27.6l-2.65 13.65h5.35zM80.05 0l-6.45-12.4h-1.9v12.4h-10.3v-34.8h12.75c5.033 0 8.783 0.89 11.25 2.67 2.467 1.787 3.7 4.58 3.7 8.38v0c0 2.167-0.483 3.967-1.45 5.4-0.967 1.433-2.533 2.783-4.7 4.05v0l8.5 14.3zM71.7-27.75v8.45h2.7c1.4 0 2.45-0.367 3.15-1.1 0.7-0.733 1.05-1.85 1.05-3.35v0c0-2.667-1.567-4-4.7-4v0zM113.05-18.45c2.3 0.467 4.167 1.323 5.6 2.57 1.433 1.253 2.15 3.113 2.15 5.58v0c0 3.833-1.39 6.51-4.17 8.03-2.787 1.513-6.73 2.27-11.83 2.27v0h-12.2v-34.8h10.85c5.167 0 9.11 0.69 11.83 2.07 2.713 1.387 4.07 3.697 4.07 6.93v0c0 2.067-0.6 3.69-1.8 4.87-1.2 1.187-2.7 2.013-4.5 2.48zM104.4-27.75h-1.5v6.4h1.75c1.567 0 2.667-0.26 3.3-0.78 0.633-0.513 0.95-1.387 0.95-2.62v0c0-1.033-0.34-1.793-1.02-2.28-0.687-0.48-1.847-0.72-3.48-0.72zM104.9-7.25c1.733 0 3.05-0.267 3.95-0.8 0.9-0.533 1.35-1.517 1.35-2.95v0c0-1.333-0.407-2.31-1.22-2.93-0.82-0.613-2.047-0.92-3.68-0.92v0h-2.4v7.6zM138.8-35.8c5.2 0 9.21 1.607 12.03 4.82 2.813 3.22 4.22 7.73 4.22 13.53v0c0 3.767-0.633 7.033-1.9 9.8-1.267 2.767-3.117 4.9-5.55 6.4-2.433 1.5-5.367 2.25-8.8 2.25v0c-5.2 0-9.207-1.627-12.02-4.88-2.82-3.247-4.23-7.77-4.23-13.57v0c0-3.767 0.633-7.027 1.9-9.78 1.267-2.747 3.117-4.863 5.55-6.35 2.433-1.48 5.367-2.22 8.8-2.22zM138.8-28.5c-1.967 0-3.383 0.84-4.25 2.52-0.867 1.687-1.3 4.53-1.3 8.53v0c0 4 0.433 6.857 1.3 8.57 0.867 1.72 2.283 2.58 4.25 2.58v0c2 0 3.427-0.85 4.28-2.55 0.847-1.7 1.27-4.567 1.27-8.6v0c0-4-0.433-6.843-1.3-8.53-0.867-1.68-2.283-2.52-4.25-2.52zM186.45-34.8v34.8h-12.9l-7.6-25.4 0.15 1.1c0.367 2.433 0.66 4.657 0.88 6.67 0.213 2.02 0.32 4.297 0.32 6.83v0 10.8h-9.1v-34.8h12.65l7.9 25.5-0.15-1.05c-0.4-2.3-0.707-4.443-0.92-6.43-0.22-1.98-0.33-4.27-0.33-6.87v0-11.15zM205.85-35.8c5.2 0 9.21 1.607 12.03 4.82 2.813 3.22 4.22 7.73 4.22 13.53v0c0 3.767-0.633 7.033-1.9 9.8-1.267 2.767-3.117 4.9-5.55 6.4-2.433 1.5-5.367 2.25-8.8 2.25v0c-5.2 0-9.207-1.627-12.02-4.88-2.82-3.247-4.23-7.77-4.23-13.57v0c0-3.767 0.633-7.027 1.9-9.78 1.267-2.747 3.117-4.863 5.55-6.35 2.433-1.48 5.367-2.22 8.8-2.22zM205.85-28.5c-1.967 0-3.383 0.84-4.25 2.52-0.867 1.687-1.3 4.53-1.3 8.53v0c0 4 0.433 6.857 1.3 8.57 0.867 1.72 2.283 2.58 4.25 2.58v0c2 0 3.427-0.85 4.28-2.55 0.847-1.7 1.27-4.567 1.27-8.6v0c0-4-0.433-6.843-1.3-8.53-0.867-1.68-2.283-2.52-4.25-2.52z" data-fill-palette-color="primary" fill="#ffffff" opacity="1"></path></g></svg></g></svg></g></svg></g></svg></g><g transform="matrix(1,0,0,1,0,0.1779929443690591)"><svg viewBox="0 0 71.21207334676798 71.1971777476255" height="71.1971777476255" width="71.21207334676798"><g> <svg xmlns="http://www.w3.org/2000/svg" viewBox="-0.00002091285386995878 0.004999995231628418 24.00002098083496 23.9950008392334" style="enable-background:new 0 0 24 24" xml:space="preserve" width="71.21207334676798" height="71.1971777476255" x="0" y="0" class="icon-icon-0" data-fill-palette-color="accent" id="icon-0"><path d="M3.255 24H1.173A1.182 1.182 0 0 1 0 22.811V15.19C0 14.533 0.526 14 1.173 14h2.654c0.322 0 0.633 0.137 0.854 0.374a1.2 1.2 0 0 1 0.315 0.905L4.424 22.9A1.184 1.184 0 0 1 3.255 24z m-2.082-9c-0.095 0-0.173 0.085-0.173 0.189v7.621c0 0.105 0.078 0.19 0.173 0.19h2.083c0.089 0 0.165-0.076 0.172-0.174L4 15.205a0.194 0.194 0 0 0-0.051-0.15 0.164 0.164 0 0 0-0.122-0.055H1.173z" fill="#ffffff" data-fill-palette-color="accent"></path><path d="M13.967 24c-4.986 0-9.594-2.063-9.788-2.151l-0.455-0.206 0.413-0.91 0.456 0.206c0.044 0.02 4.609 2.061 9.374 2.061 2.876 0 5.151-0.968 8.053-2.336 0.885-0.418 0.98-0.901 0.98-1.09a0.747 0.747 0 0 0-0.206-0.537c-0.233-0.233-0.976-0.181-1.809 0.128a6.015 6.015 0 0 1-0.534 0.17c-2.438 0.628-6.022 1.074-8.534 0.656l0.142-0.989c1.251 0.149 2.56-0.121 3.793-0.41 0.433-0.064 0.726-0.401 0.726-0.794a0.79 0.79 0 0 0-0.703-0.787c-1.404-0.173-3.186-0.42-4.936-0.839a10.314 10.314 0 0 0-2.106-0.238c-1.006 0-2.659 0.243-3.741 0.695l-0.461 0.192-0.385-0.923 0.461-0.193c1.214-0.506 2.995-0.771 4.126-0.771 0.847 0 1.807 0.138 2.339 0.266 1.701 0.408 3.447 0.649 4.778 0.813 0.948 0.118 1.627 0.883 1.627 1.785 0 0.433-0.157 0.835-0.42 1.148a26.12 26.12 0 0 0 3.043-0.58c0.149-0.038 0.292-0.085 0.437-0.139 0.752-0.281 2.125-0.636 2.863 0.103 0.323 0.321 0.5 0.764 0.5 1.244 0 0.379-0.151 1.333-1.555 1.994C20.028 22.708 17.289 24 13.967 24zM18.171 13.719c-0.104-0.025-2.559-0.63-4.485-1.496C9.274 10.241 9.97 0.859 10.001 0.46l0.57-0.455c6.113 0.889 8.482 4.873 8.895 5.663 1.661 3.175-0.636 7.611-0.734 7.798l-0.561 0.253zM10.97 1.084c-0.079 1.983-0.103 8.776 3.126 10.227 1.401 0.629 3.152 1.129 3.921 1.335 0.479-1.061 1.737-4.271 0.563-6.514-0.361-0.691-2.382-4.086-7.61-5.048z" fill="#ffffff" data-fill-palette-color="accent"></path><path d="M20 19h-1v-0.5c0-6.071-4.826-11.614-4.875-11.669l-0.33-0.375 0.749-0.662 0.331 0.375C15.084 6.406 20 12.044 20 18.5v0.5z" fill="#ffffff" data-fill-palette-color="accent"></path></svg></g></svg></g></svg></g></svg><rect width="395.52" height="56.179978245479326" fill="none" stroke="none" visibility="hidden"></rect></g></svg></g></svg>